<?xml version="1.0" encoding="UTF-8"?>
<svg id="Layer_1" data-name="Layer 1" xmlns="http://www.w3.org/2000/svg" xmlns:xlink="http://www.w3.org/1999/xlink" viewBox="0 0 1080 1080">
  <defs>
    <style>
      .cls-1 {
        fill: #fff;
      }

      .cls-2 {
        fill: url(#linear-gradient);
      }
    </style>
    <linearGradient id="linear-gradient" x1="835.96" y1="494.6" x2="-233.85" y2="663.33" gradientUnits="userSpaceOnUse">
      <stop offset="0" stop-color="#f36b3c"/>
      <stop offset=".64" stop-color="#6d844f"/>
      <stop offset=".86" stop-color="#188855"/>
    </linearGradient>
  </defs>
  <rect class="cls-2" x="-3.04" width="1083.04" height="1083.04" rx="171.43" ry="171.43"/>
  <g>
    <path class="cls-1" d="M294.55,503.51c-136.39,0-136.39-186.26,0-186.26,57.76,0,104.92,45.11,107.82,101.84.16,3.1,2.68,5.55,5.79,5.55h75c3.28,0,5.91-2.71,5.81-5.99-2.98-97.45-78.38-176.78-174.51-186.48-6.57-.69-13.17-1.01-19.9-1.01-7.99,0-15.74.36-23.21,1.01-232.07,21.02-224.32,357.34,23.21,357.34,126.15,0,126.11,174.86,0,174.86-57.68,0-104.83-45.07-107.74-101.76-.16-3.1-2.68-5.55-5.79-5.55h-75c-3.28,0-5.91,2.72-5.81,5.99.2,6.67.74,13.27,1.62,19.77,12.68,94.61,94.13,167.64,192.71,167.64,252.87,0,252.87-346.96,0-346.96Z"/>
    <path class="cls-1" d="M957.76,723.13c-6.61-44.58-26.88-84.75-56.37-116.12-5.17-5.52-10.63-10.74-16.36-15.68-2.69-2.31-2.7-6.45-.02-8.77,7.57-6.55,14.69-13.6,21.27-21.14,26.84-30.51,45.23-68.64,51.47-110.73.2-1.39.41-2.77.57-4.16,1.02-7.89,1.62-45.43,1.76-61.6.03-3.23-2.58-5.85-5.81-5.84l-84.21.18c-3.17,0-5.74,2.55-5.79,5.72l-.45,33.64c0,35.03-15.01,66.6-38.91,88.55-21.37,19.62-49.88,31.61-81.2,31.61h-114.31c-3.2,0-5.8-2.6-5.8-5.8V236.94c0-3.2-2.6-5.8-5.8-5.8h-84.65c-3.2,0-5.8,2.6-5.8,5.8v607.73c0,3.2,2.6,5.8,5.8,5.8h84.65c3.2,0,5.8-2.6,5.8-5.8v-203.83c0-3.2,2.6-5.8,5.8-5.8h108.51c69.54,0,125.91,56.37,125.91,125.91v83.72c0,3.2,2.6,5.8,5.8,5.8h84.69c3.2,0,5.8-2.6,5.8-5.8v-89.47c0-9.46-.61-18.76-1.8-27.9-.16-1.39-.37-2.77-.57-4.16Z"/>
  </g>
</svg>