<?xml version="1.0" encoding="UTF-8"?>
<svg id="Layer_1" data-name="Layer 1" xmlns="http://www.w3.org/2000/svg" viewBox="0 0 1080 1080">
  <defs>
    <style>
      .cls-1 {
        fill: #fff;
      }
    </style>
  </defs>
  <path d="M1079.83,611.06v-282.74c-1.66-113.94-94.51-205.74-208.72-205.74l-676.94.22h-.5C86.53,131.58,2.18,221.78,2.18,331.63c0,.77,0,1.55.06,2.32v304h.17v.39c4.69,104.72,85.89,189.4,188.79,199.06,6.46.61,13.03.94,19.65.94l458.89.44,157.05,120.34v-120.18l41.68.06c1.21.06,2.54.06,3.75.06,5.46,0,10.82-.22,16.17-.55,101.79-7.89,183.1-88.76,191.61-190.45l-.17-36.99ZM722.4,356.53c39.63,37.92,64.31,91.36,64.31,150.59,0,115.37-93.51,208.77-208.77,208.77s-208.83-93.4-208.83-208.77c0-29.92,6.29-58.4,17.66-84.13-62.93,17.28-130.66,24.9-190.17,8.39,80.37-52.17,162.85-102.46,248.13-145.57,116.48-64.92,253.6-39.8,355.34,39.03,24.95,19.38,48.03,41.13,65.97,67.18-45.6-13.3-94.51-27.1-143.64-35.49Z"/>
  <path d="M722.4,356.53c39.63,37.92,64.31,91.36,64.31,150.59,0,115.37-93.51,208.77-208.77,208.77s-208.83-93.4-208.83-208.77c0-29.92,6.29-58.4,17.66-84.13-62.93,17.28-130.66,24.9-190.17,8.39,80.37-52.17,162.85-102.46,248.13-145.57,116.48-64.92,253.6-39.8,355.34,39.03,24.95,19.38,48.03,41.13,65.97,67.18-45.6-13.3-94.51-27.1-143.64-35.49Z"/>
  <path class="cls-1" d="M866.04,392.02c-17.94-26.05-41.01-47.8-65.97-67.18-101.74-78.83-238.86-103.95-355.34-39.03-85.29,43.11-167.76,93.4-248.13,145.57,59.51,16.51,127.24,8.89,190.17-8.39-11.37,25.72-17.66,54.21-17.66,84.13,0,115.37,93.51,208.77,208.83,208.77s208.77-93.4,208.77-208.77c0-59.23-24.68-112.67-64.31-150.59,49.13,8.39,98.04,22.19,143.64,35.49ZM582.35,639.49c-71.32,0-129.06-57.74-129.06-129.06s57.74-129.01,129.06-129.01c66.13,0,120.62,49.74,128.12,113.88-7.23-2.15-14.9-3.31-22.85-3.31-44.05,0-79.77,35.72-79.77,79.71,0,22.69,9.49,43.17,24.68,57.68-15.46,6.51-32.4,10.1-50.18,10.1Z"/>
</svg>