<?xml version="1.0" encoding="UTF-8"?>
<svg id="Layer_1" data-name="Layer 1" xmlns="http://www.w3.org/2000/svg" viewBox="0 0 1080 1080">
  <defs>
    <style>
      .cls-1 {
        fill: #188855;
      }

      .cls-2 {
        fill: #fff;
      }
    </style>
  </defs>
  <rect class="cls-1" x="-3.04" width="1083.04" height="1083.04" rx="171.43" ry="171.43"/>
  <g>
    <path class="cls-2" d="M911.04,226.91v708.15h-163.67v-62.76c-59.32,39.61-130.6,62.76-207.29,62.76-206.17,0-373.28-167.19-373.28-373.35V123.24l166.06-.72v320.84c-47,22.94-96.89,40.88-148.96,53.05,47.99,10.62,97.81,16.46,148.96,16.82v48.48c0,114.48,92.81,207.29,207.22,207.29s207.29-92.81,207.29-207.29v-176.61c62.62-43.63,117.93-97.1,163.67-158.18Z"/>
    <path class="cls-2" d="M643.72,482.34c0,45.03-28.57,83.45-68.61,98.02-11.12,4.08-23.08,6.26-35.6,6.26-49.33,0-90.63-34.27-101.46-80.21,64.24-8.87,125.74-26.32,183.37-51.16,5.56-2.32,11.05-4.78,16.47-7.32,3.8,10.77,5.84,22.38,5.84,34.41Z"/>
  </g>
</svg>