<?xml version="1.0" encoding="UTF-8"?>
<svg id="Layer_1" data-name="Layer 1" xmlns="http://www.w3.org/2000/svg" xmlns:xlink="http://www.w3.org/1999/xlink" viewBox="0 0 1080 1080">
  <defs>
    <style>
      .cls-1 {
        fill: #188855;
      }

      .cls-2 {
        fill: #fff;
      }

      .cls-3 {
        filter: url(#drop-shadow-3);
      }

      .cls-4 {
        fill: url(#linear-gradient);
      }
    </style>
    <linearGradient id="linear-gradient" x1="1107.95" y1="-76.42" x2="213.31" y2="800.3" gradientUnits="userSpaceOnUse">
      <stop offset="0" stop-color="#f36b3c"/>
      <stop offset=".86" stop-color="#188855"/>
    </linearGradient>
    <filter id="drop-shadow-3" x="165.29" y="245.24" width="713.76" height="518.4" filterUnits="userSpaceOnUse">
      <feOffset dx="-8.19" dy="22.94"/>
      <feGaussianBlur result="blur" stdDeviation="8.19"/>
      <feFlood flood-color="#231f20" flood-opacity=".75"/>
      <feComposite in2="blur" operator="in"/>
      <feComposite in="SourceGraphic"/>
    </filter>
  </defs>
  <path class="cls-4" d="M1079.83,610.36v-283.32c-1.66-114.17-94.7-206.15-209.14-206.15l-678.31.22h-.5C84.52,129.9,0,220.29,0,330.36c0,.78,0,1.55.06,2.32v304.61h.17v.39c4.7,104.93,86.07,189.78,189.17,199.46,6.47.61,13.05.94,19.69.94l459.02.44c.52,0,1.03.17,1.44.49l152.91,117.17c1.56,1.2,3.82.08,3.82-1.88v-113.23c0-1.31,1.06-2.38,2.38-2.37l39.38.05c1.22.06,2.54.06,3.76.06,5.48,0,10.84-.22,16.21-.55,101.96-7.91,183.41-88.88,191.98-190.72,0-.08,0-.15,0-.23l-.17-36.94ZM729.16,356.63c-2.27-.41-3.75,2.33-2.14,3.98,36.58,37.6,59.1,88.95,59.1,145.59,0,115.61-93.7,209.2-209.2,209.2s-209.25-93.59-209.25-209.2c0-28.26,5.6-55.24,15.79-79.83.75-1.82-.9-3.7-2.81-3.19-59.87,15.91-123.76,22.84-180.61,8.52-2.01-.51-2.46-3.18-.71-4.31,79.11-51.23,160.26-100.54,244.12-142.94,116.71-65.05,254.11-39.88,356.05,39.11,23.2,18.01,44.77,38.07,62.13,61.73,1.34,1.82-.41,4.31-2.58,3.68-41.47-12.05-85.53-24.27-129.89-32.34Z"/>
  <path class="cls-1" d="M729.16,356.63c-2.27-.41-3.75,2.33-2.14,3.98,36.58,37.6,59.1,88.95,59.1,145.59,0,115.61-93.7,209.2-209.2,209.2s-209.25-93.59-209.25-209.2c0-28.26,5.6-55.24,15.79-79.83.75-1.82-.9-3.7-2.81-3.19-59.87,15.91-123.76,22.84-180.61,8.52-2.01-.51-2.46-3.18-.71-4.31,79.11-51.23,160.26-100.54,244.12-142.94,116.71-65.05,254.11-39.88,356.05,39.11,23.2,18.01,44.77,38.07,62.13,61.73,1.34,1.82-.41,4.31-2.58,3.68-41.47-12.05-85.53-24.27-129.89-32.34Z"/>
  <g class="cls-3">
    <path class="cls-2" d="M859.05,388.96c2.17.63,3.92-1.86,2.58-3.68-17.35-23.65-38.93-43.71-62.13-61.73-101.94-78.99-239.34-104.16-356.05-39.11-83.86,42.39-165.01,91.71-244.12,142.94-1.74,1.13-1.3,3.8.71,4.31,56.85,14.33,120.74,7.4,180.61-8.52,1.9-.51,3.56,1.37,2.81,3.19-10.19,24.59-15.79,51.57-15.79,79.83,0,115.61,93.7,209.2,209.25,209.2s209.2-93.59,209.2-209.2c0-56.64-22.52-107.99-59.1-145.59-1.61-1.65-.13-4.39,2.14-3.98,44.36,8.06,88.41,20.29,129.89,32.34ZM589.73,638.58c-77.05,4.92-141.79-59.27-137.5-136.36,3.79-68.01,60.11-121.96,129.12-121.96,65.03,0,118.82,47.99,127.91,110.53.24,1.68-1.28,3.07-2.93,2.65-6.24-1.56-12.77-2.39-19.5-2.39-44.14,0-79.93,35.79-79.93,79.87,0,21.46,8.48,40.95,22.22,55.3,1.17,1.23.73,3.25-.85,3.86-12.09,4.7-25.04,7.63-38.54,8.5Z"/>
  </g>
</svg>