<?xml version="1.0" encoding="UTF-8"?>
<svg id="Layer_1" data-name="Layer 1" xmlns="http://www.w3.org/2000/svg" viewBox="0 0 1080 1080">
  <defs>
    <style>
      .cls-1 {
        fill: #f36b3c;
      }
    </style>
  </defs>
  <path class="cls-1" d="M245.76,494.04c-170.95,0-170.95-233.46,0-233.46,72.39,0,131.5,56.54,135.14,127.65.2,3.89,3.36,6.96,7.25,6.96h94.01c4.11,0,7.41-3.4,7.28-7.5-3.73-122.14-98.25-221.57-218.73-233.73-8.23-.86-16.51-1.27-24.95-1.27-10.02,0-19.73.46-29.09,1.27-290.88,26.34-281.16,447.89,29.09,447.89,158.12,0,158.07,219.17,0,219.17-72.29,0-131.4-56.49-135.04-127.54-.2-3.89-3.36-6.96-7.25-6.96H9.46c-4.11,0-7.4,3.41-7.28,7.51.25,8.36.93,16.63,2.03,24.78,15.9,118.58,117.99,210.11,241.55,210.11,316.95,0,316.95-434.88,0-434.88Z"/>
  <path class="cls-1" d="M1077.03,769.32c-8.28-55.87-33.69-106.23-70.65-145.54-6.48-6.91-13.32-13.46-20.51-19.65-3.37-2.9-3.38-8.09-.02-11,9.49-8.21,18.42-17.05,26.66-26.5,33.64-38.24,56.69-86.04,64.51-138.79.26-1.74.51-3.48.72-5.21,1.28-9.89,2.03-56.95,2.21-77.21.04-4.05-3.24-7.33-7.29-7.32l-105.55.23c-3.97,0-7.2,3.2-7.25,7.17l-.56,42.16c0,43.91-18.81,83.48-48.77,110.98-26.79,24.59-62.52,39.62-101.78,39.62h-143.28c-4.02,0-7.27-3.25-7.27-7.27V159.92c0-4.02-3.25-7.27-7.27-7.27h-106.11c-4.02,0-7.27,3.25-7.27,7.27v761.73c0,4.02,3.25,7.27,7.27,7.27h106.11c4.02,0,7.27-3.25,7.27-7.27v-255.48c0-4.02,3.25-7.27,7.27-7.27h136.01c87.16,0,157.82,70.66,157.82,157.82v104.93c0,4.02,3.25,7.27,7.27,7.27h106.16c4.02,0,7.27-3.25,7.27-7.27v-112.15c0-11.86-.77-23.52-2.25-34.97-.2-1.74-.46-3.48-.72-5.21Z"/>
</svg>